<svg width="422" height="49" viewBox="0 0 422 49" fill="none" xmlns="http://www.w3.org/2000/svg">
<g filter="url(#filter0_d_158_31)">
<path d="M93.375 5.9C93.8471 5.33344 94.5881 5 95.375 5H116.625C117.412 5 118.153 5.33344 118.625 5.9L125.75 14.45C125.912 14.6447 126 14.8816 126 15.125V38.75C126 39.9926 124.881 41 123.5 41H88.5C87.1193 41 86 39.9926 86 38.75V15.125C86 14.8816 86.0877 14.6447 86.25 14.45L93.375 5.9ZM104.75 7.25H95.375L89.75 14H104.75V7.25ZM107.25 7.25V14H122.25L116.625 7.25H107.25ZM123.5 16.25H88.5V38.75H123.5V16.25Z" fill="black"/>
<path d="M44.4318 17.1818C44.2614 15.7424 43.5701 14.625 42.358 13.8295C41.1458 13.0341 39.6591 12.6364 37.8977 12.6364C36.6098 12.6364 35.483 12.8447 34.517 13.2614C33.5606 13.678 32.8125 14.2509 32.2727 14.9801C31.7424 15.7093 31.4773 16.5379 31.4773 17.4659C31.4773 18.2424 31.6619 18.91 32.0312 19.4688C32.41 20.018 32.893 20.4773 33.4801 20.8466C34.0672 21.2064 34.6828 21.5047 35.3267 21.7415C35.9706 21.9687 36.5625 22.1534 37.1023 22.2955L40.0568 23.0909C40.8144 23.2898 41.6572 23.5644 42.5852 23.9148C43.5227 24.2652 44.4176 24.7434 45.2699 25.3494C46.1316 25.946 46.8419 26.7131 47.4006 27.6506C47.9593 28.5881 48.2386 29.7386 48.2386 31.1023C48.2386 32.6742 47.8267 34.0947 47.0028 35.3636C46.1884 36.6326 44.9953 37.6411 43.4233 38.3892C41.8608 39.1373 39.9621 39.5114 37.7273 39.5114C35.6439 39.5114 33.84 39.1752 32.3153 38.5028C30.8002 37.8305 29.607 36.893 28.7358 35.6903C27.8741 34.4877 27.3864 33.0909 27.2727 31.5H30.9091C31.0038 32.5985 31.3731 33.5076 32.017 34.2273C32.6705 34.9375 33.4943 35.4678 34.4886 35.8182C35.4924 36.1591 36.572 36.3295 37.7273 36.3295C39.072 36.3295 40.2794 36.1117 41.3494 35.6761C42.4195 35.2311 43.267 34.6155 43.892 33.8295C44.517 33.0341 44.8295 32.1061 44.8295 31.0455C44.8295 30.0795 44.5597 29.2936 44.0199 28.6875C43.4801 28.0814 42.7699 27.589 41.8892 27.2102C41.0085 26.8314 40.0568 26.5 39.0341 26.2159L35.4545 25.1932C33.1818 24.5398 31.3826 23.607 30.0568 22.3949C28.7311 21.1828 28.0682 19.5966 28.0682 17.6364C28.0682 16.0076 28.5085 14.5871 29.3892 13.375C30.2794 12.1534 31.4725 11.2064 32.9688 10.5341C34.4744 9.85227 36.1553 9.51136 38.0114 9.51136C39.8864 9.51136 41.553 9.84754 43.0114 10.5199C44.4697 11.1828 45.625 12.0919 46.4773 13.2472C47.339 14.4025 47.7936 15.714 47.8409 17.1818H44.4318ZM52.4396 13.0341V9.90909H74.2578V13.0341H65.1101V39H61.5874V13.0341H52.4396ZM159.354 19H155.831C155.623 17.9867 155.258 17.0966 154.737 16.3295C154.226 15.5625 153.601 14.9186 152.862 14.3977C152.133 13.8674 151.323 13.4697 150.433 13.2045C149.543 12.9394 148.615 12.8068 147.649 12.8068C145.888 12.8068 144.292 13.2519 142.862 14.142C141.442 15.0322 140.31 16.3438 139.467 18.0767C138.634 19.8097 138.217 21.9356 138.217 24.4545C138.217 26.9735 138.634 29.0994 139.467 30.8324C140.31 32.5653 141.442 33.8769 142.862 34.767C144.292 35.6572 145.888 36.1023 147.649 36.1023C148.615 36.1023 149.543 35.9697 150.433 35.7045C151.323 35.4394 152.133 35.0464 152.862 34.5256C153.601 33.9953 154.226 33.3466 154.737 32.5795C155.258 31.803 155.623 30.9129 155.831 29.9091H159.354C159.089 31.3958 158.606 32.7263 157.905 33.9006C157.204 35.0748 156.333 36.0739 155.291 36.8977C154.25 37.7121 153.08 38.3324 151.783 38.7585C150.495 39.1847 149.117 39.3977 147.649 39.3977C145.168 39.3977 142.962 38.7917 141.03 37.5795C139.098 36.3674 137.578 34.6439 136.47 32.4091C135.362 30.1742 134.808 27.5227 134.808 24.4545C134.808 21.3864 135.362 18.7348 136.47 16.5C137.578 14.2652 139.098 12.5417 141.03 11.3295C142.962 10.1174 145.168 9.51136 147.649 9.51136C149.117 9.51136 150.495 9.72443 151.783 10.1506C153.08 10.5767 154.25 11.2017 155.291 12.0256C156.333 12.84 157.204 13.8343 157.905 15.0085C158.606 16.1733 159.089 17.5038 159.354 19ZM165.046 39V9.90909H168.569V24.3409H168.91L181.978 9.90909H186.58L174.364 23.0341L186.58 39H182.319L172.205 25.4773L168.569 29.5682V39H165.046ZM202.39 9.90909H206.594L216.481 34.0568H216.822L226.708 9.90909H230.913V39H227.617V16.8977H227.333L218.242 39H215.06L205.969 16.8977H205.685V39H202.39V9.90909ZM239.169 39H235.476L246.158 9.90909H249.794L260.476 39H256.783L248.089 14.5114H247.862L239.169 39ZM240.533 27.6364H255.419V30.7614H240.533V27.6364ZM288.075 9.90909V39H284.666L268.814 16.1591H268.53V39H265.007V9.90909H268.416L284.325 32.8068H284.609V9.90909H288.075ZM296.317 39H292.624L303.306 9.90909H306.942L317.624 39H313.931L305.238 14.5114H305.011L296.317 39ZM297.681 27.6364H312.567V30.7614H297.681V27.6364ZM340.675 19C340.362 18.0436 339.95 17.1866 339.439 16.429C338.937 15.6619 338.336 15.0085 337.635 14.4688C336.944 13.929 336.158 13.517 335.277 13.233C334.396 12.9489 333.43 12.8068 332.379 12.8068C330.656 12.8068 329.089 13.2519 327.678 14.142C326.267 15.0322 325.144 16.3438 324.311 18.0767C323.478 19.8097 323.061 21.9356 323.061 24.4545C323.061 26.9735 323.482 29.0994 324.325 30.8324C325.168 32.5653 326.309 33.8769 327.749 34.767C329.188 35.6572 330.807 36.1023 332.607 36.1023C334.273 36.1023 335.741 35.7472 337.01 35.0369C338.288 34.3172 339.283 33.304 339.993 31.9972C340.713 30.6809 341.072 29.1326 341.072 27.3523L342.152 27.5795H333.402V24.4545H344.482V27.5795C344.482 29.9754 343.97 32.0587 342.947 33.8295C341.934 35.6004 340.533 36.9735 338.743 37.9489C336.963 38.9148 334.917 39.3977 332.607 39.3977C330.031 39.3977 327.768 38.7917 325.817 37.5795C323.875 36.3674 322.36 34.6439 321.271 32.4091C320.192 30.1742 319.652 27.5227 319.652 24.4545C319.652 22.1534 319.96 20.0843 320.575 18.2472C321.2 16.4006 322.081 14.8286 323.217 13.5312C324.354 12.2339 325.698 11.2396 327.251 10.5483C328.804 9.85701 330.514 9.51136 332.379 9.51136C333.913 9.51136 335.343 9.74337 336.669 10.2074C338.004 10.6619 339.193 11.3106 340.234 12.1534C341.286 12.9867 342.161 13.9858 342.862 15.1506C343.563 16.3059 344.046 17.589 344.311 19H340.675ZM350.515 39V9.90909H368.072V13.0341H354.038V22.8636H367.163V25.9886H354.038V35.875H368.299V39H350.515ZM374.421 39V9.90909H384.251C386.523 9.90909 388.389 10.2973 389.847 11.0739C391.306 11.8409 392.385 12.8968 393.086 14.2415C393.787 15.5862 394.137 17.1155 394.137 18.8295C394.137 20.5436 393.787 22.0634 393.086 23.3892C392.385 24.715 391.31 25.7566 389.862 26.5142C388.413 27.2623 386.561 27.6364 384.308 27.6364H376.353V24.4545H384.194C385.747 24.4545 386.997 24.2273 387.944 23.7727C388.9 23.3182 389.592 22.6742 390.018 21.8409C390.453 20.9981 390.671 19.9943 390.671 18.8295C390.671 17.6648 390.453 16.6468 390.018 15.7756C389.582 14.9044 388.886 14.232 387.93 13.7585C386.973 13.2756 385.709 13.0341 384.137 13.0341H377.944V39H374.421ZM388.114 25.9318L395.273 39H391.183L384.137 25.9318H388.114Z" fill="#0B0426"/>
<path d="M11.1625 24.0358C11.0582 23.9881 10.9418 23.9881 10.8375 24.0358L5.6155 26.423L7.71875 27.3845L13.1032 24.923L11.1625 24.0358ZM14.2812 25.4615L8.89675 27.923L11 28.8845L16.3845 26.423L14.2812 25.4615ZM17.125 27.1615L11.4375 29.7615V37.6845L17.125 35.0845V27.1615ZM10.5625 37.6845V29.7615L4.875 27.1615V35.0845L10.5625 37.6845ZM10.5125 23.1073C10.8255 22.9642 11.1745 22.9642 11.4875 23.1073L17.725 25.9587C17.8911 26.0347 18 26.2185 18 26.423V35.0845C18 35.4934 17.7822 35.8611 17.45 36.0129L11.1625 38.8872C11.0582 38.9349 10.9418 38.9349 10.8375 38.8872L4.55003 36.0129C4.21783 35.8611 4 35.4934 4 35.0845V26.423C4 26.2185 4.10892 26.0347 4.27502 25.9587L10.5125 23.1073Z" fill="black"/>
<path d="M411.162 24.0358C411.058 23.9881 410.942 23.9881 410.838 24.0358L405.616 26.423L407.719 27.3845L413.103 24.923L411.162 24.0358ZM414.281 25.4615L408.897 27.923L411 28.8845L416.384 26.423L414.281 25.4615ZM417.125 27.1615L411.438 29.7615V37.6845L417.125 35.0845V27.1615ZM410.562 37.6845V29.7615L404.875 27.1615V35.0845L410.562 37.6845ZM410.513 23.1073C410.825 22.9642 411.175 22.9642 411.487 23.1073L417.725 25.9587C417.891 26.0347 418 26.2185 418 26.423V35.0845C418 35.4934 417.782 35.8611 417.45 36.0129L411.162 38.8872C411.058 38.9349 410.942 38.9349 410.838 38.8872L404.55 36.0129C404.218 35.8611 404 35.4934 404 35.0845V26.423C404 26.2185 404.109 26.0347 404.275 25.9587L410.513 23.1073Z" fill="black"/>
</g>
<defs>
<filter id="filter0_d_158_31" x="0" y="5" width="422" height="44" filterUnits="userSpaceOnUse" color-interpolation-filters="sRGB">
<feFlood flood-opacity="0" result="BackgroundImageFix"/>
<feColorMatrix in="SourceAlpha" type="matrix" values="0 0 0 0 0 0 0 0 0 0 0 0 0 0 0 0 0 0 127 0" result="hardAlpha"/>
<feOffset dy="4"/>
<feGaussianBlur stdDeviation="2"/>
<feComposite in2="hardAlpha" operator="out"/>
<feColorMatrix type="matrix" values="0 0 0 0 0 0 0 0 0 0 0 0 0 0 0 0 0 0 0.25 0"/>
<feBlend mode="normal" in2="BackgroundImageFix" result="effect1_dropShadow_158_31"/>
<feBlend mode="normal" in="SourceGraphic" in2="effect1_dropShadow_158_31" result="shape"/>
</filter>
</defs>
</svg>
